# Blender 4.2.0
# www.blender.org
o body.005
v -0.062500 0.003373 -0.250321
v -0.062500 0.003373 0.062179
v -0.062500 -0.121627 -0.250321
v -0.062500 -0.121627 0.062179
v 0.062500 0.003373 0.062179
v 0.062500 0.003373 -0.250321
v 0.062500 -0.121627 0.062179
v 0.062500 -0.121627 -0.250321
vn -0.0000 -0.0000 1.0000
vn -1.0000 -0.0000 -0.0000
vn -0.0000 -0.0000 -1.0000
vn 1.0000 -0.0000 -0.0000
vn -0.0000 1.0000 -0.0000
vn -0.0000 -1.0000 -0.0000
vt 0.250000 0.562500
vt 0.312500 0.562500
vt 0.312500 0.625000
vt 0.250000 0.625000
vt 0.312500 0.937500
vt 0.468750 0.937500
vt 0.468750 1.000000
vt 0.312500 1.000000
vt 0.343750 0.562500
vt 0.406250 0.562500
vt 0.406250 0.625000
vt 0.343750 0.625000
vt 0.312500 0.843750
vt 0.468750 0.843750
vt 0.468750 0.906250
vt 0.312500 0.906250
vt 0.375000 0.812500
vt 0.312500 0.812500
vt 0.312500 0.656250
vt 0.375000 0.656250
vt 0.218750 0.468750
vt 0.156250 0.468750
vt 0.156250 0.625000
vt 0.218750 0.625000
s 0
f 4/1/1 7/2/1 5/3/1 2/4/1
f 3/5/2 4/6/2 2/7/2 1/8/2
f 8/9/3 3/10/3 1/11/3 6/12/3
f 7/13/4 8/14/4 6/15/4 5/16/4
f 6/17/5 1/18/5 2/19/5 5/20/5
f 7/21/6 4/22/6 3/23/6 8/24/6
o body.008
v 0.081875 -0.063515 -0.426503
v -0.081875 -0.063515 -0.426503
v 0.081875 -0.052620 -0.336692
v -0.081875 -0.052620 -0.336692
v -0.081875 -0.047173 -0.291786
v 0.081875 -0.047173 -0.291786
v -0.000000 -0.041726 -0.246880
v -0.000000 -0.063515 -0.426503
v -0.000000 -0.052620 -0.336692
v -0.000000 -0.047173 -0.291786
v 0.049065 -0.041726 -0.246880
v 0.049065 -0.063515 -0.426503
v 0.049065 -0.052620 -0.336692
v 0.049065 -0.047173 -0.291786
v -0.049065 -0.041726 -0.246880
v -0.049065 -0.063515 -0.426503
v -0.049065 -0.052620 -0.336692
v -0.049065 -0.047173 -0.291786
v 0.081875 -0.075469 -0.425749
v -0.081875 -0.075469 -0.425749
v 0.081875 -0.064574 -0.335938
v -0.081875 -0.064574 -0.335938
v -0.081875 -0.059127 -0.291032
v 0.081875 -0.059127 -0.291032
v -0.000000 -0.053680 -0.246126
v -0.000000 -0.075469 -0.425749
v -0.000000 -0.064574 -0.335938
v -0.000000 -0.059127 -0.291032
v 0.049065 -0.053680 -0.246126
v 0.049065 -0.075469 -0.425749
v 0.049065 -0.064574 -0.335938
v 0.049065 -0.059127 -0.291032
v -0.049065 -0.053680 -0.246126
v -0.049065 -0.075469 -0.425749
v -0.049065 -0.064574 -0.335938
v -0.049065 -0.059127 -0.291032
vn -0.0000 0.9927 -0.1204
vn -0.0000 -0.9927 0.1204
vn 1.0000 -0.0000 -0.0000
vn -0.0000 -0.0630 -0.9980
vn -1.0000 -0.0000 -0.0000
vn -0.0000 0.0630 0.9980
vt 0.031250 0.937500
vt 0.000000 0.937500
vt 0.000000 0.875000
vt 0.031250 0.875000
vt 0.031250 0.968750
vt 0.000000 0.968750
vt 0.093750 1.000000
vt 0.062500 1.000000
vt 0.062500 0.968750
vt 0.093750 0.968750
vt 0.062500 0.937500
vt 0.093750 0.937500
vt 0.062500 0.875000
vt 0.093750 0.875000
vt 0.031250 1.000000
vt 0.125000 0.937500
vt 0.125000 0.875000
vt 0.125000 0.968750
vt 0.125000 0.906250
vt 0.093750 0.906250
vt 0.062500 0.906250
vt 0.031250 0.906250
vt 0.000000 0.906250
s 0
f 21/25/7 11/26/7 9/27/7 20/28/7
f 22/29/7 14/30/7 11/26/7 21/25/7
f 23/31/7 15/32/7 18/33/7 26/34/7
f 26/34/7 18/33/7 17/35/7 25/36/7
f 25/36/7 17/35/7 16/37/7 24/38/7
f 15/32/7 19/39/7 22/29/7 18/33/7
f 18/33/7 22/29/7 21/25/7 17/35/7
f 17/35/7 21/25/7 20/28/7 16/37/7
f 12/40/7 25/36/7 24/38/7 10/41/7
f 13/42/7 26/34/7 25/36/7 12/40/7
f 39/25/8 38/28/8 27/27/8 29/26/8
f 40/29/8 39/25/8 29/26/8 32/30/8
f 41/31/8 44/34/8 36/33/8 33/32/8
f 44/34/8 43/36/8 35/35/8 36/33/8
f 43/36/8 42/38/8 34/37/8 35/35/8
f 33/32/8 36/33/8 40/29/8 37/39/8
f 36/33/8 35/35/8 39/25/8 40/29/8
f 35/35/8 34/37/8 38/28/8 39/25/8
f 30/40/8 28/41/8 42/38/8 43/36/8
f 31/42/8 30/40/8 43/36/8 44/34/8
f 9/28/9 11/25/9 29/26/9 27/27/9
f 10/43/10 24/44/10 42/38/10 28/41/10
f 11/25/9 14/29/9 32/30/9 29/26/9
f 12/36/11 10/38/11 28/41/11 30/40/11
f 13/34/11 12/36/11 30/40/11 31/42/11
f 26/36/12 13/40/12 31/42/12 44/34/12
f 19/39/12 15/32/12 33/32/12 37/39/12
f 16/45/10 20/46/10 38/28/10 34/37/10
f 20/46/10 9/47/10 27/27/10 38/28/10
f 14/26/12 22/25/12 40/29/12 32/30/12
f 22/33/9 19/32/9 37/39/9 40/29/9
f 15/32/12 23/31/12 41/31/12 33/32/12
f 24/44/10 16/45/10 34/37/10 42/38/10
f 23/32/11 26/33/11 44/34/11 41/31/11
o body.010
v 0.056250 -0.002877 0.174679
v 0.056250 -0.099752 0.174679
v 0.056250 -0.002877 0.062179
v -0.056250 -0.002877 0.174679
v -0.056250 -0.099752 0.174679
v -0.056250 -0.002877 0.062179
v -0.056250 -0.099752 0.062179
v 0.056250 -0.099752 0.062179
vn -0.0000 -0.0000 1.0000
vn 1.0000 -0.0000 -0.0000
vn -0.0000 1.0000 -0.0000
vn -1.0000 -0.0000 -0.0000
vn -0.0000 -0.0000 -1.0000
vn -0.0000 -1.0000 -0.0000
vt 0.000000 0.500000
vt 0.062500 0.500000
vt 0.062500 0.562500
vt 0.000000 0.562500
vt 0.406250 0.656250
vt 0.468750 0.656250
vt 0.468750 0.718750
vt 0.406250 0.718750
vt 0.312500 0.531250
vt 0.250000 0.531250
vt 0.250000 0.468750
vt 0.312500 0.468750
vt 0.437500 0.562500
vt 0.500000 0.562500
vt 0.500000 0.625000
vt 0.437500 0.625000
vt 0.406250 0.750000
vt 0.468750 0.750000
vt 0.468750 0.812500
vt 0.406250 0.812500
vt 0.406250 0.468750
vt 0.343750 0.468750
vt 0.343750 0.531250
vt 0.406250 0.531250
s 0
f 49/48/13 46/49/13 45/50/13 48/51/13
f 46/52/14 52/53/14 47/54/14 45/55/14
f 48/56/15 45/57/15 47/58/15 50/59/15
f 51/60/16 49/61/16 48/62/16 50/63/16
f 52/64/17 51/65/17 50/66/17 47/67/17
f 51/68/18 52/69/18 46/70/18 49/71/18
o body.011
v 0.057485 -0.056644 0.225707
v 0.057485 -0.084769 0.225707
v 0.057485 -0.056644 0.144109
v -0.057485 -0.056644 0.225707
v -0.057485 -0.084769 0.225707
v -0.057485 -0.056644 0.144109
v -0.057485 -0.084769 0.144109
v 0.057485 -0.084769 0.144109
vn -0.0000 -0.0000 1.0000
vn 1.0000 -0.0000 -0.0000
vn -0.0000 1.0000 -0.0000
vn -1.0000 -0.0000 -0.0000
vn -0.0000 -0.0000 -1.0000
vn -0.0000 -1.0000 -0.0000
vt 0.562500 0.656250
vt 0.640625 0.656250
vt 0.640625 0.687500
vt 0.562500 0.687500
vt 0.062500 0.437500
vt 0.125000 0.437500
vt 0.125000 0.468750
vt 0.062500 0.468750
vt 0.468750 0.468750
vt 0.437500 0.468750
vt 0.437500 0.375000
vt 0.468750 0.375000
vt 0.531250 0.593750
vt 0.593750 0.593750
vt 0.593750 0.625000
vt 0.531250 0.625000
vt 0.281250 0.406250
vt 0.312500 0.406250
vt 0.312500 0.437500
vt 0.281250 0.437500
vt 0.531250 0.406250
vt 0.500000 0.406250
vt 0.500000 0.468750
vt 0.531250 0.468750
s 0
f 57/72/19 54/73/19 53/74/19 56/75/19
f 54/76/20 60/77/20 55/78/20 53/79/20
f 56/80/21 53/81/21 55/82/21 58/83/21
f 59/84/22 57/85/22 56/86/22 58/87/22
f 60/88/23 59/89/23 58/90/23 55/91/23
f 59/92/24 60/93/24 54/94/24 57/95/24
o body.012
v 0.062500 -0.026877 0.139304
v 0.062500 -0.061127 0.139304
v 0.062500 -0.026877 0.098804
v -0.062500 -0.026877 0.139304
v -0.062500 -0.061127 0.139304
v -0.062500 -0.026877 0.098804
v -0.062500 -0.061127 0.098804
v 0.062500 -0.061127 0.098804
vn -0.0000 -0.0000 1.0000
vn 1.0000 -0.0000 -0.0000
vn -0.0000 1.0000 -0.0000
vn -1.0000 -0.0000 -0.0000
vn -0.0000 -0.0000 -1.0000
vn -0.0000 -1.0000 -0.0000
vt 0.062500 0.843750
vt 0.125000 0.843750
vt 0.125000 0.875000
vt 0.062500 0.875000
vt 0.125000 0.968750
vt 0.156250 0.968750
vt 0.156250 1.000000
vt 0.125000 1.000000
vt 0.187500 0.906250
vt 0.125000 0.906250
vt 0.187500 0.875000
vt 0.125000 0.937500
vt 0.156250 0.937500
vt 0.000000 0.843750
vt 0.000000 0.875000
vt 0.250000 0.875000
vt 0.250000 0.906250
s 0
f 65/96/25 62/97/25 61/98/25 64/99/25
f 62/100/26 68/101/26 63/102/26 61/103/26
f 64/104/27 61/105/27 63/98/27 66/106/27
f 67/107/28 65/108/28 64/101/28 66/100/28
f 68/109/29 67/96/29 66/99/29 63/110/29
f 67/111/30 68/106/30 62/104/30 65/112/30
o body.013
v 0.031764 -0.053222 -0.098719
v 0.031764 -0.119026 -0.134776
v 0.018999 -0.053222 -0.098719
v 0.018999 -0.119026 -0.134776
v 0.031764 -0.115191 -0.130003
v 0.031764 -0.125709 -0.166016
v 0.018999 -0.115191 -0.130003
v 0.018999 -0.125709 -0.166016
v 0.031764 -0.057066 -0.091703
v 0.031764 -0.122871 -0.127760
v 0.018999 -0.057066 -0.091703
v 0.018999 -0.122871 -0.127760
v 0.031764 -0.122871 -0.127760
v 0.031764 -0.133388 -0.163774
v 0.018999 -0.122871 -0.127760
v 0.018999 -0.133388 -0.163774
vn -0.0000 0.4805 -0.8770
vn -0.0000 0.9599 -0.2803
vn -0.0000 -0.4805 0.8770
vn -0.0000 -0.9599 0.2803
vn 1.0000 -0.0000 -0.0000
vn -0.0000 0.8770 0.4805
vn -1.0000 -0.0000 -0.0000
vn -0.0000 -0.8770 -0.4805
vn -0.0000 0.2803 0.9599
vn -0.0000 -0.2803 -0.9599
vt 0.500000 0.656250
vt 0.531250 0.656250
vt 0.531250 0.718750
vt 0.500000 0.718750
vt 0.187500 0.437500
vt 0.156250 0.437500
vt 0.156250 0.406250
vt 0.187500 0.406250
s 0
f 70/113/31 72/114/31 71/115/31 69/116/31
f 75/117/32 73/118/32 74/119/32 76/120/32
f 78/113/33 77/116/33 79/115/33 80/114/33
f 83/117/34 84/120/34 82/119/34 81/118/34
f 70/114/35 69/115/35 77/116/35 78/113/35
f 69/116/36 71/115/36 79/115/36 77/116/36
f 71/116/37 72/113/37 80/114/37 79/115/37
f 72/114/38 70/113/38 78/113/38 80/114/38
f 74/120/35 73/117/35 81/118/35 82/119/35
f 73/118/39 75/117/39 83/117/39 81/118/39
f 75/117/37 76/120/37 84/119/37 83/118/37
f 76/120/40 74/119/40 82/118/40 84/117/40
o body.014
v -0.016182 -0.115191 -0.130003
v -0.016182 -0.125709 -0.166016
v -0.028947 -0.115191 -0.130003
v -0.028947 -0.125709 -0.166016
v -0.016182 -0.053222 -0.098719
v -0.016182 -0.119026 -0.134776
v -0.028947 -0.053222 -0.098719
v -0.028947 -0.119026 -0.134776
v -0.016182 -0.122871 -0.127760
v -0.016182 -0.133388 -0.163774
v -0.028947 -0.122871 -0.127760
v -0.028947 -0.133388 -0.163774
v -0.016182 -0.057066 -0.091703
v -0.016182 -0.122871 -0.127760
v -0.028947 -0.057066 -0.091703
v -0.028947 -0.122871 -0.127760
vn -0.0000 0.9599 -0.2803
vn -0.0000 0.4805 -0.8770
vn -0.0000 -0.9599 0.2803
vn -0.0000 -0.4805 0.8770
vn 1.0000 -0.0000 -0.0000
vn -0.0000 0.2803 0.9599
vn -1.0000 -0.0000 -0.0000
vn -0.0000 -0.2803 -0.9599
vn -0.0000 0.8770 0.4805
vn -0.0000 -0.8770 -0.4805
vt 0.250000 0.437500
vt 0.218750 0.437500
vt 0.218750 0.406250
vt 0.250000 0.406250
vt 0.093750 0.500000
vt 0.125000 0.500000
vt 0.125000 0.562500
vt 0.093750 0.562500
s 0
f 87/121/41 85/122/41 86/123/41 88/124/41
f 90/125/42 92/126/42 91/127/42 89/128/42
f 95/121/43 96/124/43 94/123/43 93/122/43
f 98/125/44 97/128/44 99/127/44 100/126/44
f 86/124/45 85/121/45 93/122/45 94/123/45
f 85/122/46 87/121/46 95/121/46 93/122/46
f 87/122/47 88/123/47 96/124/47 95/121/47
f 88/121/48 86/122/48 94/123/48 96/124/48
f 90/126/45 89/127/45 97/128/45 98/125/45
f 89/128/49 91/127/49 99/127/49 97/128/49
f 91/128/47 92/125/47 100/126/47 99/127/47
f 92/126/50 90/125/50 98/125/50 100/126/50
o body.015
v 0.068750 -0.031877 0.130304
v 0.068750 -0.052127 0.130304
v 0.068750 -0.031877 0.110054
v -0.068750 -0.031877 0.130304
v -0.068750 -0.052127 0.130304
v -0.068750 -0.031877 0.110054
v -0.068750 -0.052127 0.110054
v 0.068750 -0.052127 0.110054
vn -0.0000 -0.0000 1.0000
vn 1.0000 -0.0000 -0.0000
vn -0.0000 1.0000 -0.0000
vn -1.0000 -0.0000 -0.0000
vn -0.0000 -0.0000 -1.0000
vn -0.0000 -1.0000 -0.0000
vt 0.500000 0.968750
vt 0.593750 0.968750
vt 0.593750 1.000000
vt 0.500000 1.000000
vt 0.062500 0.375000
vt 0.093750 0.375000
vt 0.093750 0.406250
vt 0.062500 0.406250
vt 0.593750 0.937500
vt 0.500000 0.937500
vt 0.500000 0.906250
vt 0.593750 0.906250
vt 0.000000 0.343750
vt 0.031250 0.343750
vt 0.031250 0.375000
vt 0.000000 0.375000
vt 0.437500 0.500000
vt 0.531250 0.500000
vt 0.531250 0.531250
vt 0.437500 0.531250
vt 0.593750 0.843750
vt 0.500000 0.843750
vt 0.500000 0.875000
vt 0.593750 0.875000
s 0
f 105/129/51 102/130/51 101/131/51 104/132/51
f 102/133/52 108/134/52 103/135/52 101/136/52
f 104/137/53 101/138/53 103/139/53 106/140/53
f 107/141/54 105/142/54 104/143/54 106/144/54
f 108/145/55 107/146/55 106/147/55 103/148/55
f 107/149/56 108/150/56 102/151/56 105/152/56
