# Blender 4.2.0
# www.blender.org
o cube.001
v 0.326676 0.008012 0.083034
v 0.000061 0.008012 -0.163560
v 0.000061 0.008012 0.083034
v 0.326676 0.008012 -0.081362
v 0.000061 0.008012 -0.081362
v 0.081715 0.008012 -0.163560
v 0.081715 0.008012 0.083034
v 0.081715 0.008012 -0.081362
v 0.409284 0.008012 0.083034
v 0.409284 0.008012 -0.081362
v 0.164322 0.008012 -0.163560
v 0.164322 0.008012 -0.081362
v 0.326676 -0.006988 0.083034
v 0.000061 -0.006988 -0.163560
v 0.000061 -0.006988 0.083034
v 0.326676 -0.006988 -0.081362
v 0.000061 -0.006988 -0.081362
v 0.081715 -0.006988 -0.163560
v 0.081715 -0.006988 0.083034
v 0.081715 -0.006988 -0.081362
v 0.409284 -0.006988 0.083034
v 0.409284 -0.006988 -0.081362
v 0.164322 -0.006988 -0.163560
v 0.164322 -0.006988 -0.081362
vn -0.0000 1.0000 -0.0000
vn -0.0000 -1.0000 -0.0000
vn -0.0000 -0.0000 1.0000
vn -0.0000 -0.0000 -1.0000
vn -1.0000 -0.0000 -0.0000
vn 1.0000 -0.0000 -0.0000
vt 0.875000 0.375000
vt 0.781250 0.375000
vt 0.781250 0.312500
vt 0.875000 0.312500
vt 0.906250 0.375000
vt 0.906250 0.312500
vt 0.875000 0.281250
vt 0.906250 0.281250
vt 0.843750 0.281250
vt 0.843750 0.312500
vt 0.750000 0.156250
vt 0.750000 0.218750
vt 0.718750 0.218750
vt 0.718750 0.156250
vt 0.625000 0.187500
vt 0.718750 0.187500
vt 0.625000 0.218750
vt 0.875000 0.000000
vt 0.781250 0.000000
vt 0.781250 0.031250
vt 0.875000 0.031250
vt 0.656250 0.187500
vt 0.687500 0.187500
vt 0.687500 0.156250
vt 0.656250 0.156250
vt 0.906250 0.218750
vt 0.875000 0.218750
vt 0.875000 0.250000
vt 0.906250 0.250000
vt 0.656250 0.109375
vt 0.656250 0.171875
vt 0.625000 0.171875
vt 0.625000 0.109375
vt 0.812500 0.281250
vt 0.812500 0.312500
vt 0.843750 0.218750
vt 0.843750 0.250000
vt 0.750000 0.312500
vt 0.750000 0.281250
vt 0.781250 0.281250
vt 0.625015 0.093754
vt 0.656265 0.093754
vt 0.656265 0.125004
vt 0.625015 0.125004
s 0
f 7/1/1 1/2/1 4/3/1 8/4/1
f 3/5/1 7/1/1 8/4/1 5/6/1
f 5/6/1 8/4/1 6/7/1 2/8/1
f 6/9/1 8/10/1 12/4/1 11/7/1
f 4/11/1 1/12/1 9/13/1 10/14/1
f 19/1/2 20/4/2 16/3/2 13/2/2
f 15/5/2 17/6/2 20/4/2 19/1/2
f 17/6/2 14/8/2 18/7/2 20/4/2
f 18/9/2 23/7/2 24/4/2 20/10/2
f 16/11/2 22/14/2 21/13/2 13/12/2
f 1/15/3 7/16/3 19/13/3 13/17/3
f 8/18/4 4/19/4 16/20/4 20/21/4
f 3/1/5 5/4/5 17/6/5 15/5/5
f 7/22/3 3/23/3 15/24/3 19/25/3
f 5/6/5 2/8/5 14/8/5 17/6/5
f 2/26/4 6/27/4 18/28/4 14/29/4
f 10/30/6 9/31/6 21/32/6 22/33/6
f 11/34/6 12/35/6 24/10/6 23/9/6
f 6/36/4 11/37/4 23/28/4 18/27/4
f 12/4/3 8/4/3 20/4/3 24/4/3
f 4/38/4 10/39/4 22/40/4 16/3/4
f 9/41/3 1/42/3 13/43/3 21/44/3
